<svg width="16" height="24" viewBox="0 0 16 24" fill="none" xmlns="http://www.w3.org/2000/svg">
<path d="M6.02247 0V2.99625H3.77528C1.73783 2.99625 0.0299625 4.70412 0.0299625 6.74157V8.2397C0.0299625 10.2772 1.34831 11.9551 3.29588 12.4644L10.9663 14.4419C11.3858 14.5618 11.985 15.3109 11.985 15.7603V17.2584C11.985 17.6779 11.6554 18.0075 11.236 18.0075H3.74532C3.38577 18.0075 3.1161 17.8876 2.99625 17.8277V15.0112H0V18.0075C0 19.0262 0.599251 19.8951 1.31835 20.3446C2.00749 20.824 2.8764 21.0037 3.74532 21.0037H5.99251V24H8.98876V21.0037H11.236C13.3034 21.0037 14.9813 19.3258 14.9813 17.2584V15.7603C14.9813 13.7228 13.6629 12.0449 11.7154 11.5356L4.04494 9.55805C3.62547 9.4382 3.02622 8.68914 3.02622 8.2397V6.74157C3.02622 6.3221 3.35581 5.99251 3.77528 5.99251H11.2659C11.5955 5.99251 11.8951 6.11236 12.015 6.17228V8.98876H15.0112V5.99251C15.0112 4.97378 14.412 4.10487 13.6929 3.65543C13.0037 3.17603 12.1348 2.99625 11.2659 2.99625H9.01873V0H6.02247V0Z" fill="black"/>
</svg>
