<svg width="24" height="19" viewBox="0 0 24 19" fill="none" xmlns="http://www.w3.org/2000/svg">
<path d="M1.27932 0.00608847C0.881423 0.0697522 0.525112 0.288873 0.288772 0.615246C0.0524331 0.94162 -0.0445751 1.34851 0.0190886 1.74641C0.0827523 2.14431 0.301873 2.50062 0.628246 2.73696C0.95462 2.9733 1.36151 3.0703 1.75941 3.00664H6.26024L6.53029 3.75678L7.76051 7.50747L8.99074 11.2582C9.11076 11.6482 9.62086 12.0083 10.0109 12.0083H20.5129C20.9329 12.0083 21.413 11.6482 21.5331 11.2582L23.9635 3.75678C24.0835 3.36671 23.9035 3.00664 23.4834 3.00664H10.161L9.02075 0.846243C8.8993 0.598275 8.71179 0.388631 8.47884 0.240394C8.2459 0.0921579 7.97657 0.0110799 7.7005 0.00608847L1.6994 0.00608847C1.60956 -0.00202949 1.51918 -0.00202949 1.42935 0.00608847C1.36939 0.00248456 1.30927 0.00248456 1.24932 0.00608847L1.27932 0.00608847ZM10.7611 15.0089C9.92091 15.0089 9.26079 15.669 9.26079 16.5091C9.26079 17.3493 9.92091 18.0094 10.7611 18.0094C11.6012 18.0094 12.2613 17.3493 12.2613 16.5091C12.2613 15.669 11.6012 15.0089 10.7611 15.0089ZM19.7627 15.0089C18.9226 15.0089 18.2624 15.669 18.2624 16.5091C18.2624 17.3493 18.9226 18.0094 19.7627 18.0094C20.6029 18.0094 21.263 17.3493 21.263 16.5091C21.263 15.669 20.6029 15.0089 19.7627 15.0089Z" fill="black"/>
</svg>
