<svg width="24" height="24" viewBox="0 0 24 24" fill="none" xmlns="http://www.w3.org/2000/svg">
<path d="M9.01873 0C7.37079 0 6.02247 1.34831 6.02247 2.99625V5.99251H0.299625C0.11985 5.99251 0.0299625 6.11236 0.0299625 6.26217V13.4831C0.0299625 14.3221 0.689139 14.9813 1.52809 14.9813H22.5019C23.3408 14.9813 24 14.3221 24 13.4831V6.26217C24 6.0824 23.8801 5.99251 23.7303 5.99251H18.0075V2.99625C18.0075 1.34831 16.6592 0 15.0112 0H9.01873V0ZM9.01873 2.99625H15.0112V5.99251H9.01873V2.99625ZM0.0299625 17.7079V23.7004C0.0299625 23.8502 0.149813 23.97 0.299625 23.97H23.7004C23.8502 23.97 23.97 23.8502 23.97 23.7004V17.7079C23.4906 17.8876 23.0112 17.9775 22.4719 17.9775H1.49813C0.958801 17.9775 0.479401 17.8577 0 17.7079H0.0299625Z" fill="black"/>
</svg>
